<svg width="120" height="120" viewBox="0 0 120 120" fill="none" xmlns="http://www.w3.org/2000/svg">
<path d="M88.8001 9.6001H31.2001C19.2913 9.6001 9.6001 19.2889 9.6001 31.2001V88.8001C9.6001 100.711 19.2913 110.4 31.2001 110.4H88.8001C100.709 110.4 110.4 100.711 110.4 88.8001V31.2001C110.4 19.2889 100.709 9.6001 88.8001 9.6001ZM84.0001 64.8001V74.4001V74.4505H83.9953C83.9665 81.0433 78.5977 86.4001 72.0001 86.4001H70.8001C68.4313 86.4001 66.1609 85.3921 64.5697 83.6353C62.9809 81.8809 62.2057 79.5121 62.4409 77.1433C62.8681 72.9121 66.6889 69.6001 71.1433 69.6001H74.4001C77.0473 69.6001 79.2001 67.4473 79.2001 64.8001V41.2921L50.4001 46.6921V72.0001V81.6001C50.4001 88.2169 45.0169 93.6001 38.4001 93.6001H37.2001C34.8313 93.6001 32.5609 92.5921 30.9697 90.8353C29.3809 89.0809 28.6057 86.7121 28.8409 84.3433C29.2681 80.1121 33.0889 76.8001 37.5433 76.8001H40.8001C43.4473 76.8001 45.6001 74.6473 45.6001 72.0001V36.8473C45.6001 34.5361 47.2489 32.5513 49.5193 32.1289L79.7377 26.4649C80.7913 26.2657 81.8761 26.5441 82.6993 27.2305C83.5273 27.9169 84.0001 28.9273 84.0001 30.0001V64.8001Z" fill="black"/>
</svg>
