<svg width="120" height="120" viewBox="0 0 120 120" fill="none" xmlns="http://www.w3.org/2000/svg">
<path d="M72 26.3999C63.3563 26.3999 55.2 30.6937 50.4 37.6499V46.0499L51.15 46.5749L52.05 44.1749C55.4063 36.253 63.375 31.1999 71.775 31.1999C83.775 31.1999 93.375 40.7999 93.375 52.7999V57.5999L96.975 56.1749C98.6531 55.453 100.322 55.1999 102 55.1999C109.2 55.1999 115.2 61.1999 115.2 68.3999C115.2 75.5999 109.2 81.5999 102 81.5999H50.4V86.3999H102C111.844 86.3999 120 78.2437 120 68.3999C120 58.5562 111.844 50.3999 102 50.3999C100.8 50.3999 99.6 50.6062 98.4 50.8499C97.2 37.1718 85.9219 26.3999 72 26.3999ZM40.8 38.3999C39.1219 38.3999 37.4438 38.6062 36 38.8499V86.3999H40.8V38.3999ZM43.2 38.3999V86.3999H48V39.5999C46.5563 39.1218 44.8781 38.6437 43.2 38.3999ZM33.6 39.5999C31.9219 40.3218 30.2438 41.0437 28.8 41.9999V86.3999H33.6V39.5999ZM26.4 43.9499C24.4781 45.628 22.8 47.7749 21.6 50.1749V86.3999H26.4V43.9499ZM15.6 52.7999C15.1781 52.828 14.7563 52.903 14.4 53.0249V86.1749C15.1219 86.4186 16.0781 86.3999 16.8 86.3999H19.2V53.0249C18.4781 52.7812 17.5219 52.7999 16.8 52.7999C16.4438 52.7999 16.0219 52.7718 15.6 52.7999ZM12 53.5499C10.3219 54.028 8.64375 54.7499 7.2 55.9499V83.2499C8.64375 84.2062 10.3219 85.1718 12 85.6499V53.5499ZM4.8 57.8249C1.92187 60.9468 0 65.0437 0 69.5999C0 74.1562 1.92187 78.253 4.8 81.3749V57.8249Z" fill="black"/>
</svg>
