<svg width="120" height="120" viewBox="0 0 120 120" fill="none" xmlns="http://www.w3.org/2000/svg">
<path d="M60 10C32.445 10 10 32.445 10 60C10 87.555 32.445 110 60 110C87.555 110 110 87.555 110 60C110 32.445 87.555 10 60 10ZM60 20C82.1506 20 100 37.8494 100 60C100 82.1506 82.1506 100 60 100C37.8494 100 20 82.1506 20 60C20 37.8494 37.8494 20 60 20ZM53.4473 40C45.7473 40 38.4806 40.8581 31.6406 42.5781C29.9306 43.0031 28.6426 44.2807 28.6426 46.8457C28.6426 49.4107 30.3549 51.553 32.9199 51.123C34.1999 51.123 34.6333 50.6934 35.4883 50.6934C41.0483 49.4084 47.4623 48.5547 53.4473 48.5547C65.4223 48.5547 77.822 51.545 86.377 56.25C87.657 56.675 88.0805 57.1094 88.9355 57.1094C91.5055 57.1094 93.2176 55.397 93.6426 52.832C93.6426 50.697 92.369 49.4097 91.084 48.5547C80.394 42.9947 66.7023 40 53.4473 40ZM52.5977 54.9707C45.3277 54.9707 40.1984 56.2541 35.0684 57.5391C32.9284 58.3941 32.0703 59.2467 32.0703 61.3867C32.0703 63.0967 33.3483 64.8047 35.4883 64.8047C36.3433 64.8047 36.772 64.805 37.627 64.375C41.477 63.52 46.608 62.666 52.168 62.666C63.283 62.666 73.5503 65.2266 80.8203 69.9316C81.6753 70.3566 82.5337 70.791 83.3887 70.791C85.5237 70.791 86.8013 69.0784 87.2363 66.9434C87.2363 65.6634 86.3827 64.3804 85.0977 63.5254C75.6877 57.9654 64.5727 54.9707 52.5977 54.9707ZM53.877 70.0391C47.892 70.0391 42.3276 70.8927 36.7676 72.1777C35.0576 72.1777 34.209 73.456 34.209 75.166C34.209 76.876 35.4873 78.1641 37.1973 78.1641C37.6273 78.1641 38.4809 77.7344 39.3359 77.7344C43.6109 76.8794 48.7423 76.0254 53.4473 76.0254C61.9973 76.0254 70.128 78.1617 76.543 82.0117C77.398 82.4367 77.8266 82.8613 78.6816 82.8613C79.9616 82.8613 81.2446 82.013 82.0996 79.873C82.0996 78.163 81.2456 77.73 80.3906 76.875C72.6906 72.6 63.712 70.0391 53.877 70.0391Z" fill="black"/>
</svg>
